<svg width="400" height="300" viewBox="0 0 400 300" fill="none" xmlns="http://www.w3.org/2000/svg">
  <rect width="400" height="300" fill="none"/>
  
  <!-- Hotel Building -->
  <rect x="100" y="100" width="200" height="160" fill="#E2E8F0" rx="8"/>
  
  <!-- Windows -->
  <rect x="120" y="120" width="30" height="30" fill="#CBD5E1" rx="4"/>
  <rect x="170" y="120" width="30" height="30" fill="#CBD5E1" rx="4"/>
  <rect x="220" y="120" width="30" height="30" fill="#CBD5E1" rx="4"/>
  <rect x="270" y="120" width="30" height="30" fill="#CBD5E1" rx="4"/>
  
  <rect x="120" y="170" width="30" height="30" fill="#CBD5E1" rx="4"/>
  <rect x="170" y="170" width="30" height="30" fill="#94A3B8" rx="4"/>
  <rect x="220" y="170" width="30" height="30" fill="#CBD5E1" rx="4"/>
  <rect x="270" y="170" width="30" height="30" fill="#CBD5E1" rx="4"/>
  
  <!-- Door -->
  <rect x="185" y="210" width="30" height="50" fill="#64748B" rx="4"/>
  <circle cx="195" cy="235" r="2" fill="#F8FAFC"/>
  
  <!-- Sign -->
  <rect x="170" y="80" width="60" height="20" fill="#EF4444" rx="4"/>
  <text x="200" y="95" font-family="Arial" font-size="12" font-weight="bold" text-anchor="middle" fill="white">404</text>
  
  <!-- Person with Luggage -->
  <circle cx="80" cy="220" r="10" fill="#334155"/>
  <rect x="75" y="230" width="10" height="20" fill="#475569"/>
  <rect x="65" y="240" width="20" height="8" fill="#64748B" rx="4"/>
  <rect x="90" y="235" width="15" height="10" fill="#94A3B8" rx="2"/>
  
  <!-- Search Magnifying Glass -->
  <circle cx="320" cy="220" r="15" stroke="#334155" stroke-width="3" fill="none"/>
  <line x1="335" y1="235" x2="350" y2="250" stroke="#334155" stroke-width="3"/>
  
  <!-- Floating Key -->
  <path d="M340 120C340 123.314 337.314 126 334 126C330.686 126 328 123.314 328 120C328 116.686 330.686 114 334 114C337.314 114 340 116.686 340 120Z" fill="#F59E0B"/>
  <rect x="332" y="120" width="4" height="20" fill="#F59E0B" rx="2"/>
  <rect x="330" y="140" width="8" height="4" fill="#F59E0B" rx="2"/>
</svg>